<?xml version="1.0" encoding="UTF-8" standalone="no"?>
<!-- Created with matplotlib (http://matplotlib.org/) -->

<svg
   xmlns:dc="http://purl.org/dc/elements/1.1/"
   xmlns:cc="http://creativecommons.org/ns#"
   xmlns:rdf="http://www.w3.org/1999/02/22-rdf-syntax-ns#"
   xmlns:svg="http://www.w3.org/2000/svg"
   xmlns="http://www.w3.org/2000/svg"
   xmlns:sodipodi="http://sodipodi.sourceforge.net/DTD/sodipodi-0.dtd"
   xmlns:inkscape="http://www.inkscape.org/namespaces/inkscape"
   height="482pt"
   version="1.1"
   viewBox="0 0 437 482"
   width="437pt"
   id="svg3676"
   inkscape:version="0.48.4 r9939"
   sodipodi:docname="image.svg">
  <metadata
     id="metadata4365">
    <rdf:RDF>
      <cc:Work
         rdf:about="">
        <dc:format>image/svg+xml</dc:format>
        <dc:type
           rdf:resource="http://purl.org/dc/dcmitype/StillImage" />
      </cc:Work>
    </rdf:RDF>
  </metadata>
  <sodipodi:namedview
     pagecolor="#ffffff"
     bordercolor="#666666"
     borderopacity="1"
     objecttolerance="10"
     gridtolerance="10"
     guidetolerance="10"
     inkscape:pageopacity="0"
     inkscape:pageshadow="2"
     inkscape:window-width="1920"
     inkscape:window-height="1058"
     id="namedview4363"
     showgrid="false"
     inkscape:zoom="1"
     inkscape:cx="457.49773"
     inkscape:cy="234.47394"
     inkscape:window-x="1912"
     inkscape:window-y="-8"
     inkscape:window-maximized="1"
     inkscape:current-layer="svg3676" />
  <defs
     id="defs3678">
    <style
       type="text/css"
       id="style3680">
*{stroke-linecap:butt;stroke-linejoin:round;}
  </style>
  </defs>
  <g
     style="stroke-linecap:butt;stroke-linejoin:round"
     id="patch_1"
     transform="translate(0,-0.72208786)">
    <path
       inkscape:connector-curvature="0"
       id="path3684"
       style="fill:#ffffff;stroke-linecap:butt;stroke-linejoin:round"
       d="m 0,482.4 437.4,0 L 437.4,0 0,0 z" />
  </g>
  <g
     id="legend_1"
     style="stroke-linecap:butt;stroke-linejoin:round"
     transform="translate(-34.705308,0.93100008)">
    <g
       id="patch_7"
       style="stroke-linecap:butt;stroke-linejoin:round">
      <path
         d="m 63.075,77.7581 77.88,0 q 2.4,0 2.4,-2.4 l 0,-18.7181 q 0,-2.4 -2.4,-2.4 l -77.88,0 q -2.4,0 -2.4,2.4 l 0,18.7181 q 0,2.4 2.4,2.4 z"
         style="fill:#eeeeee;stroke:#bcbcbc;stroke-width:0.5;stroke-linecap:butt;stroke-linejoin:miter"
         id="path4115"
         inkscape:connector-curvature="0" />
    </g>
    <g
       id="line2d_34"
       style="stroke-linecap:butt;stroke-linejoin:round">
      <path
         d="m 65.475,63.9581 24,0"
         style="fill:none;stroke:#0080ff;stroke-linecap:square;stroke-linejoin:round"
         id="path4118"
         inkscape:connector-curvature="0" />
    </g>
    <g
       id="line2d_35"
       style="stroke-linecap:butt;stroke-linejoin:round" />
    <g
       id="text_16"
       style="stroke-linecap:butt;stroke-linejoin:round">
      <!-- $ \Delta K_{th,ox} $ -->
      <g
         transform="matrix(0.12,0,0,-0.12,99.075,68.158125)"
         id="g4122"
         style="stroke-linecap:butt;stroke-linejoin:round">
        <path
           style="stroke-linecap:butt;stroke-linejoin:round"
           inkscape:connector-curvature="0"
           id="use4124"
           d="m 5.42188,0.421875 q -0.82813,0 -0.82813,0.78125 0.04687,0.09375 0.0625,0.140625 0.03125,0.0625 0.03125,0.203125 l 34.4219,69.3906 q 0.4375,1.0625 1.8125,1.0625 l 1.3593,0 q 1.375,0 1.8126,-1.0625 l 34.4218,-69.3906 q 0.0469,-0.09375 0.0625,-0.171875 0.0313,-0.078125 0.0313,-0.171875 0,-0.78125 -0.8282,-0.78125 z m 6.59372,8.01562 52.6875,0 -26.3281,53.06248 z" />
        <path
           style="stroke-linecap:butt;stroke-linejoin:round"
           inkscape:connector-curvature="0"
           id="use4126"
           d="m 87.988281,0.421875 q -0.96875,0 -0.96875,1.3125 0.04687,0.25 0.1875,0.85938 0.14063,0.60937 0.40625,0.96874 0.28125,0.375 0.67188,0.375 6.09372,0 8.50002,0.6875 1.3125,0.4375 1.8906,2.6875 l 13.734399,54.92188 q 0.1875,0.9844 0.1875,1.375 0,1.0781 -1.2188,1.2187 -1.8593,0.3907 -7.1719,0.3907 -0.9843,0 -0.9843,1.3125 0.3437,1.2812 0.5312,1.7344 0.2031,0.4687 1.125,0.4687 l 26.9063,0 q 1.0312,0 1.0312,-1.3125 -0.0468,-0.25 -0.2031,-0.8438 -0.1406,-0.5781 -0.3906,-0.9687 -0.2344,-0.3906 -0.7344,-0.3906 -6.0937,0 -8.4844,-0.6875 -1.3281,-0.4844 -1.9062,-2.7344 l -8.1094,-32.375 39.2031,30.2812 q 0.1094,0.1876 1.25,1.3282 1.1563,1.1562 1.1563,2.2812 0,1.9063 -3.375,1.9063 -1.0313,0 -1.0313,1.3125 0.2032,0.7812 0.3125,1.2187 0.125,0.4531 0.4375,0.7188 0.3282,0.2656 0.9688,0.2656 l 19.375,0 q 0.5468,0 0.7812,-0.3906 0.25,-0.3907 0.25,-0.9219 -0.0468,-0.25 -0.2187,-0.8906 -0.1719,-0.625 -0.4375,-0.9688 -0.2656,-0.3437 -0.7656,-0.3437 -7.3126,0 -16.0157,-6.7813 -0.0469,-0.0625 -0.1406,-0.0937 -0.0937,-0.0157 -0.2031,-0.0469 -0.0938,-0.0156 -0.1406,-0.0625 l -20.6094,-16.0156 15,-35.1094 q 1.3594,-2.1875 2.9218,-2.6875 1.5626,-0.48438 4.7813,-0.48438 1.0313,0 1.0313,-1.3125 -0.2969,-1.17187 -0.5938,-1.687495 -0.2812,-0.515625 -1.1094,-0.515625 l -23.2031,0 q -0.9219,0 -0.9219,1.3125 0.1406,1.03125 0.3282,1.60938 0.2031,0.59374 0.9843,0.59374 2.5469,0 4.3281,0.51563 1.7813,0.51563 1.7813,2.35937 0,0.6875 -0.0937,1.03126 l -12.4063,28.85932 -14.5937,-11.2812 -4.5938,-18.5 q -0.25,-1.21875 -0.25,-1.42188 0,-1.03124 1.2188,-1.17187 1.9062,-0.39063 7.2343,-0.39063 0.9688,0 0.9688,-1.3125 -0.3438,-1.42187 -0.5469,-1.812495 -0.1875,-0.390625 -1.1562,-0.390625 z" />
        <path
           style="stroke-linecap:butt;stroke-linejoin:round"
           inkscape:connector-curvature="0"
           id="use4128"
           d="m 172.55507,-19.410934 q 0,1.028118 0.20782,1.946854 l 5.05316,20.09224 -7.35004,0 q -0.71094,0 -0.71094,0.92967 0.27344,1.53125 0.91875,1.53125 l 7.75473,0 2.81092,11.41875 q 0.27342,0.92967 1.09375,1.575 0.82033,0.64533 1.8375,0.64533 0.89684,0 1.4875,-0.53599 0.60151,-0.525 0.60151,-1.41092 0,-0.20783 -0.0218,-0.32809 -0.0109,-0.10941 -0.0437,-0.25158 l -2.8,-11.1125 7.20783,0 q 0.72184,0 0.72184,-0.91875 -0.0438,-0.175 -0.14217,-0.59066 -0.0984,-0.40467 -0.27342,-0.67809 -0.175,-0.27342 -0.51408,-0.27342 l -7.62342,0 -5.02033,-20.23441 q -0.51408,-1.979684 -0.51408,-3.4125 0,-3.007816 2.05625,-3.007816 3.07349,0 5.44691,2.8875 2.37342,2.8875 3.64217,6.343736 0.27342,0.40467 0.54691,0.40467 l 0.85309,0 q 0.27342,0 0.4375,-0.18592 0.175,-0.18592 0.175,-0.42658 0,-0.14217 -0.0656,-0.20776 -1.54224,-4.23283 -4.48441,-7.448455 -2.93125,-3.215625 -6.72658,-3.215625 -2.76717,0 -4.6703,1.804684 -1.89219,1.815632 -1.89219,4.659382" />
        <path
           style="stroke-linecap:butt;stroke-linejoin:round"
           inkscape:connector-curvature="0"
           id="use4130"
           d="m 197.20136,-23.81875 q 0,0.404684 0.0656,0.6125 l 10.15001,40.46875 q 0.27342,1.19217 0.33901,1.88125 0,1.12658 -4.53901,1.12658 -0.72191,0 -0.72191,0.91875 0.0328,0.175 0.15316,0.6125 0.12026,0.44842 0.30625,0.68908 0.18592,0.24059 0.53592,0.24059 l 9.42809,0.75467 0.20783,0 q 0,-0.07658 0.24066,-0.19684 0.24059,-0.10941 0.27342,-0.15316 0.13125,-0.33908 0.13125,-0.54684 L 208.30293,0.75783 q 4.30941,5.08592 10.22658,5.08592 2.46092,0 4.25467,-0.85309 1.79375,-0.85316 2.8,-2.58132 1.00625,-1.72809 1.00625,-4.1125 0,-2.87651 -1.27967,-6.94526 -1.27974,-4.06875 -3.19375,-9.08908 -0.99533,-2.285934 -0.99533,-4.2 0,-2.089066 1.60783,-2.089066 2.73434,0 4.56092,2.920316 1.82658,2.920316 2.58125,6.31092 0.14217,0.40467 0.54684,0.40467 l 0.85316,0 q 0.27342,0 0.44842,-0.18592 0.175,-0.18592 0.175,-0.42658 0,-0.06559 -0.0766,-0.20776 -0.6125,-2.52658 -1.82651,-4.97658 -1.21408,-2.439066 -3.0625,-4.06875 -1.8375,-1.61875 -4.33125,-1.61875 -2.46092,0 -4.21092,1.695316 -1.73908,1.695309 -1.73908,4.1125 0,1.301559 0.54684,2.734354 1.97974,5.27191 3.29224,9.40625 1.32342,4.13441 1.32342,7.27342 0,2.02349 -0.7875,3.35783 -0.7875,1.33441 -2.63592,1.33441 -3.7625,0 -6.5625,-2.30783 -2.8,-2.30783 -4.85632,-6.10309 l -4.74684,-19.107844 q -0.27342,-1.060941 -1.06092,-1.728128 -0.78751,-0.667188 -1.80471,-0.667188 -0.89687,0 -1.53125,0.601563 -0.62344,0.601562 -0.62344,1.454687" />
        <path
           style="stroke-linecap:butt;stroke-linejoin:round"
           inkscape:connector-curvature="0"
           id="use4132"
           d="m 240.73808,-37.69842 q 0,0.30625 0.27346,0.57967 2.5375,2.42809 3.9375,5.610934 1.4,3.171882 1.4,6.693754 l 0,0.853128 q -1.12658,-1.126566 -2.8,-1.126566 -1.60783,0 -2.73441,1.126566 -1.12655,1.126559 -1.12655,2.734368 0,1.640632 1.12655,2.734382 1.12658,1.093764 2.73441,1.093764 2.49375,0 3.55467,-2.30783 1.06092,-2.307816 1.06092,-5.107812 0,-3.893754 -1.56408,-7.393768 -1.55309,-3.51092 -4.38592,-6.31092 -0.27342,-0.14217 -0.44842,-0.14217 -0.33908,0 -0.68908,0.31717 -0.33905,0.30625 -0.33905,0.64533" />
        <path
           style="stroke-linecap:butt;stroke-linejoin:round"
           inkscape:connector-curvature="0"
           id="use4134"
           d="m 268.65879,-25.875 q -3.325,0 -5.90625,1.575 -2.57032,1.575 -3.98125,4.232816 -1.4,2.668764 -1.4,6.059354 0,4.74691 2.64687,9.39533 2.6578,4.64842 7.04379,7.54684 4.39684,2.90941 9.20934,2.90941 2.60316,0 4.6375,-0.88592 2.03434,-0.88599 3.53283,-2.49375 1.50934,-1.60783 2.30783,-3.7625 0.80934,-2.15474 0.80934,-4.68125 0,-3.65316 -1.54217,-7.19691 -1.54217,-3.53276 -4.22191,-6.420295 -2.67967,-2.8875 -6.13592,-4.582809 -3.44533,-1.695316 -7,-1.695316 m 0.13125,1.848434 q 3.10625,0 5.6875,2.110941 2.58125,2.121875 4.23283,5.348455 1.6625,3.2375 2.54842,6.825 0.89684,3.5875 0.89684,6.49684 0,3.04066 -1.52026,5.1625 -1.52033,2.12191 -4.49533,2.12191 -4.10158,0 -7.18592,-3.51092 -3.07349,-3.5 -4.62658,-8.37816 -1.55309,-4.86717 -1.55309,-8.89217 0,-3.05158 1.55309,-5.173455 1.55309,-2.110941 4.4625,-2.110941" />
        <path
           style="stroke-linecap:butt;stroke-linejoin:round"
           inkscape:connector-curvature="0"
           id="use4136"
           d="m 293.91211,-23.075 q 1.23593,-0.951566 3.48908,-0.951566 2.1875,0 3.86092,2.1 1.67342,2.1 2.28592,4.593736 l 3.18283,12.41408 q 0.75467,3.37967 0.75467,4.61559 0,1.73908 -0.97342,3.04066 -0.97342,1.30158 -2.72342,1.30158 -2.22033,0 -4.16717,-1.38908 -1.94691,-1.38908 -3.28132,-3.52184 -1.33434,-2.13283 -1.88122,-4.32033 -0.13125,-0.44849 -0.54687,-0.44849 l -0.85313,0 q -0.54687,0 -0.54687,0.65632 l 0,0.19684 q 0.67812,2.60316 2.31875,5.075 1.64066,2.48283 4.01408,4.01408 2.38434,1.54217 5.08592,1.54217 2.55934,0 4.62658,-1.36717 2.06717,-1.36724 2.92026,-3.71875 1.20316,2.14375 3.0625,3.60934 1.85941,1.47658 4.07974,1.47658 1.50934,0 3.07342,-0.53592 1.575,-0.525 2.57033,-1.61875 0.99533,-1.09375 0.99533,-2.73441 0,-1.77184 -1.14849,-3.0625 -1.14842,-1.27967 -2.92033,-1.27967 -1.12651,0 -1.88118,0.72184 -0.75474,0.72191 -0.75474,1.81566 0,1.46566 1.00625,2.57033 1.01717,1.11559 2.41717,1.32342 -1.26868,0.99533 -3.48901,0.99533 -2.25316,0 -3.91566,-2.08908 -1.65151,-2.08908 -2.34059,-4.64842 l -3.07342,-12.37033 q -0.75474,-2.81092 -0.75474,-4.615625 0,-1.782809 1.00625,-3.0625 1.00625,-1.279691 2.69066,-1.279691 3.28125,0 5.85151,2.8875 2.58132,2.8875 3.40158,6.343736 0.14224,0.40467 0.54691,0.40467 l 0.86401,0 q 0.27349,0 0.4375,-0.18592 0.175,-0.18592 0.175,-0.42658 0,-0.06559 -0.0656,-0.20776 -0.99533,-4.167205 -4.17809,-7.415646 -3.17191,-3.248434 -7.175,-3.248434 -2.55941,0 -4.62658,1.378125 -2.06724,1.389059 -2.93125,3.751559 -1.09375,-2.05625 -3.02967,-3.598434 -1.925,-1.53125 -4.1125,-1.53125 -1.49849,0 -3.09534,0.535938 -1.58595,0.525 -2.58125,1.618746 -0.98439,1.09375 -0.98439,2.767191 0,1.640625 1.1375,2.985955 1.14844,1.35625 2.86564,1.35625 1.15935,0 1.94685,-0.7 0.7875,-0.7 0.7875,-1.82658 0,-1.476566 -0.98434,-2.570316 -0.97346,-1.09375 -2.43908,-1.367184" />
      </g>
    </g>
  </g>
  <defs
     id="defs4358">
    <clipPath
       id="p9ac226b8ce">
      <rect
         height="385.92"
         width="338.985"
         x="54.675"
         y="48.24"
         id="rect4361" />
    </clipPath>
  </defs>
  <g
     id="legend_2"
     style="stroke-linecap:butt;stroke-linejoin:round"
     transform="translate(-166.26399,-1.127993)">
    <g
       id="patch_12"
       style="stroke-linecap:butt;stroke-linejoin:round">
      <path
         d="m 333.66,76.1981 51.6,0 q 2.4,0 2.4,-2.4 l 0,-17.1581 q 0,-2.4 -2.4,-2.4 l -51.6,0 q -2.4,0 -2.4,2.4 l 0,17.1581 q 0,2.4 2.4,2.4 z"
         style="fill:#eeeeee;stroke:#bcbcbc;stroke-width:0.5;stroke-linecap:butt;stroke-linejoin:miter"
         id="path4345"
         inkscape:connector-curvature="0" />
    </g>
    <g
       id="line2d_55"
       style="stroke-linecap:butt;stroke-linejoin:round">
      <path
         d="m 336.06,63.9581 24,0"
         style="fill:none;stroke:#ff0000;stroke-linecap:square;stroke-linejoin:round"
         id="path4348"
         inkscape:connector-curvature="0" />
    </g>
    <g
       id="line2d_56"
       style="stroke-linecap:butt;stroke-linejoin:round" />
    <g
       id="text_27"
       style="stroke-linecap:butt;stroke-linejoin:round">
      <!-- $\sigma_a$ -->
      <g
         transform="matrix(0.12,0,0,-0.12,369.66,68.158125)"
         id="g4352"
         style="stroke-linecap:butt;stroke-linejoin:round">
        <path
           style="stroke-linecap:butt;stroke-linejoin:round"
           inkscape:connector-curvature="0"
           id="use4354"
           d="m 18.7031,-0.234375 q -4.4375,0 -7.8906,2.125 -3.4375,2.125 -5.32812,5.73438 -1.875,3.62502 -1.875,7.96872 0,4.6407 2.09374,9.7657 2.10938,5.125 5.74998,9.375 3.6407,4.25 8.2188,6.75 4.5937,2.5156 9.4375,2.5156 l 25.1875,0 q 1.0312,0 1.75,-0.6875 0.7343,-0.6719 0.7343,-1.8438 0,-1.4687 -1.0468,-2.5625 -1.0469,-1.0937 -2.5156,-1.0937 l -12.2032,0 q 2.875,-4.2969 2.875,-10.4063 0,-5.0312 -1.9531,-9.9218 -1.9531,-4.875 -5.4219,-8.9063 -3.4531,-4.03125 -8.0781,-6.42188 -4.6094,-2.39062 -9.7344,-2.39062 m 0.0938,2.64062 q 5.4687,0 9.6875,4.26563 4.2344,4.28125 6.4687,10.45315 2.25,6.1718 2.25,11.4531 0,4.2969 -2.375,6.7656 -2.3593,2.4688 -6.6093,2.4688 -5.8126,0 -9.8907,-3.9063 -4.0625,-3.9062 -6.0937,-9.8281 -2.0313,-5.9063 -2.0313,-11.375 0,-4.29688 2.2657,-7.29688 2.2812,-3 6.3281,-3" />
        <path
           style="stroke-linecap:butt;stroke-linejoin:round"
           inkscape:connector-curvature="0"
           id="use4356"
           d="m 69.253498,-25.40625 q -4.41875,0 -6.96717,3.335934 -2.5375,3.335941 -2.5375,7.874986 0,4.48441 2.31875,9.29691 2.32967,4.82342 6.27816,8.01717 3.94842,3.19375 8.4875,3.19375 2.08901,0 3.72967,-1.12658 1.64059,-1.12651 2.55934,-3.07342 0.7875,2.8 3.08441,2.8 0.88592,0 1.47658,-0.53592 0.60151,-0.525 0.60151,-1.41099 0,-0.20776 -0.02184,-0.31717 Q 88.251918,2.55 88.219158,2.41875 l -4.88908,-19.55625 q -0.48125,-2.078125 -0.48125,-3.4125 0,-3.007816 2.02342,-3.007816 2.1875,0 3.325,2.778132 1.14849,2.789059 1.93599,6.453104 0.13118,0.40467 0.54684,0.40467 l 0.85316,0 q 0.27342,0 0.4375,-0.24059 0.175,-0.24059 0.175,-0.4375 -1.225,-4.889066 -2.67974,-7.853125 -1.45467,-2.953125 -4.73592,-2.953125 -2.35158,0 -4.16717,1.378125 -1.81566,1.389059 -2.25316,3.685941 -4.51717,-5.064066 -9.05625,-5.064066 m 0.06566,1.848434 q 2.52658,0 4.9,1.892191 2.37342,1.903125 4.09059,4.462535 0.06566,0.06559 0.06566,0.20776 l 3.7625,15.21408 0.06559,0.19684 q -0.41559,2.49382 -1.80467,4.2875 -1.37809,1.80474 -3.72967,1.80474 -2.3625,0 -4.39691,-1.93592 -2.03434,-1.93599 -3.43434,-4.56099 -1.36717,-2.8 -2.61408,-7.68901 -1.24691,-4.88908 -1.24691,-7.59066 0,-2.428125 1.03908,-4.364066 1.05,-1.925 3.30316,-1.925" />
      </g>
    </g>
  </g>
</svg>
